<svg width="144" height="144" viewBox="0 0 144 144" fill="none" xmlns="http://www.w3.org/2000/svg">
<circle cx="72" cy="72" r="70" stroke="#F8F1EE" stroke-width="4"/>
<path fill-rule="evenodd" clip-rule="evenodd" d="M56 52.125C56 48.0141 57.633 44.0717 60.5398 41.1648C63.4467 38.258 67.3891 36.625 71.5 36.625C75.6109 36.625 79.5533 38.258 82.4602 41.1648C85.367 44.0717 87 48.0141 87 52.125C87 56.2359 85.367 60.1783 82.4602 63.0852C79.5533 65.992 75.6109 67.625 71.5 67.625C67.3891 67.625 63.4467 65.992 60.5398 63.0852C57.633 60.1783 56 56.2359 56 52.125ZM56 75.375C50.8614 75.375 45.9333 77.4163 42.2998 81.0498C38.6663 84.6833 36.625 89.6114 36.625 94.75C36.625 97.8331 37.8498 100.79 40.0299 102.97C42.21 105.15 45.1669 106.375 48.25 106.375H94.75C97.8331 106.375 100.79 105.15 102.97 102.97C105.15 100.79 106.375 97.8331 106.375 94.75C106.375 89.6114 104.334 84.6833 100.7 81.0498C97.0667 77.4163 92.1386 75.375 87 75.375H56Z" fill="#E3CFBC"/>
</svg>
